// === Articulação: Snare_Center ===

// --- Mic: Overhead_L ---
<group> seq_position=1 output=6 // Round-Robin: A
<region> sample=Snare_Center_A_vel01_mic-Overhead_L.wav lovel=0 hivel=8
<region> sample=Snare_Center_A_vel02_mic-Overhead_L.wav lovel=9 hivel=17
<region> sample=Snare_Center_A_vel03_mic-Overhead_L.wav lovel=18 hivel=26
<region> sample=Snare_Center_A_vel04_mic-Overhead_L.wav lovel=27 hivel=35
<region> sample=Snare_Center_A_vel05_mic-Overhead_L.wav lovel=36 hivel=44
<region> sample=Snare_Center_A_vel06_mic-Overhead_L.wav lovel=45 hivel=53
<region> sample=Snare_Center_A_vel07_mic-Overhead_L.wav lovel=54 hivel=62
<region> sample=Snare_Center_A_vel08_mic-Overhead_L.wav lovel=63 hivel=71
<region> sample=Snare_Center_A_vel09_mic-Overhead_L.wav lovel=72 hivel=80
<region> sample=Snare_Center_A_vel10_mic-Overhead_L.wav lovel=81 hivel=89
<region> sample=Snare_Center_A_vel11_mic-Overhead_L.wav lovel=90 hivel=98
<region> sample=Snare_Center_A_vel12_mic-Overhead_L.wav lovel=99 hivel=107
<region> sample=Snare_Center_A_vel13_mic-Overhead_L.wav lovel=108 hivel=127
<group> seq_position=2 output=6 // Round-Robin: B
<region> sample=Snare_Center_B_vel01_mic-Overhead_L.wav lovel=0 hivel=8
<region> sample=Snare_Center_B_vel02_mic-Overhead_L.wav lovel=9 hivel=17
<region> sample=Snare_Center_B_vel03_mic-Overhead_L.wav lovel=18 hivel=26
<region> sample=Snare_Center_B_vel04_mic-Overhead_L.wav lovel=27 hivel=35
<region> sample=Snare_Center_B_vel05_mic-Overhead_L.wav lovel=36 hivel=44
<region> sample=Snare_Center_B_vel06_mic-Overhead_L.wav lovel=45 hivel=53
<region> sample=Snare_Center_B_vel07_mic-Overhead_L.wav lovel=54 hivel=62
<region> sample=Snare_Center_B_vel08_mic-Overhead_L.wav lovel=63 hivel=71
<region> sample=Snare_Center_B_vel09_mic-Overhead_L.wav lovel=72 hivel=80
<region> sample=Snare_Center_B_vel10_mic-Overhead_L.wav lovel=81 hivel=89
<region> sample=Snare_Center_B_vel11_mic-Overhead_L.wav lovel=90 hivel=98
<region> sample=Snare_Center_B_vel12_mic-Overhead_L.wav lovel=99 hivel=107
<region> sample=Snare_Center_B_vel13_mic-Overhead_L.wav lovel=108 hivel=127
<group> seq_position=3 output=6 // Round-Robin: C
<region> sample=Snare_Center_C_vel01_mic-Overhead_L.wav lovel=0 hivel=8
<region> sample=Snare_Center_C_vel02_mic-Overhead_L.wav lovel=9 hivel=17
<region> sample=Snare_Center_C_vel03_mic-Overhead_L.wav lovel=18 hivel=26
<region> sample=Snare_Center_C_vel04_mic-Overhead_L.wav lovel=27 hivel=35
<region> sample=Snare_Center_C_vel05_mic-Overhead_L.wav lovel=36 hivel=44
<region> sample=Snare_Center_C_vel06_mic-Overhead_L.wav lovel=45 hivel=53
<region> sample=Snare_Center_C_vel07_mic-Overhead_L.wav lovel=54 hivel=62
<region> sample=Snare_Center_C_vel08_mic-Overhead_L.wav lovel=63 hivel=71
<region> sample=Snare_Center_C_vel09_mic-Overhead_L.wav lovel=72 hivel=80
<region> sample=Snare_Center_C_vel10_mic-Overhead_L.wav lovel=81 hivel=89
<region> sample=Snare_Center_C_vel11_mic-Overhead_L.wav lovel=90 hivel=98
<region> sample=Snare_Center_C_vel12_mic-Overhead_L.wav lovel=99 hivel=107
<region> sample=Snare_Center_C_vel13_mic-Overhead_L.wav lovel=108 hivel=127
<group> seq_position=4 output=6 // Round-Robin: D
<region> sample=Snare_Center_D_vel01_mic-Overhead_L.wav lovel=0 hivel=8
<region> sample=Snare_Center_D_vel02_mic-Overhead_L.wav lovel=9 hivel=17
<region> sample=Snare_Center_D_vel03_mic-Overhead_L.wav lovel=18 hivel=26
<region> sample=Snare_Center_D_vel04_mic-Overhead_L.wav lovel=27 hivel=35
<region> sample=Snare_Center_D_vel05_mic-Overhead_L.wav lovel=36 hivel=44
<region> sample=Snare_Center_D_vel06_mic-Overhead_L.wav lovel=45 hivel=53
<region> sample=Snare_Center_D_vel07_mic-Overhead_L.wav lovel=54 hivel=62
<region> sample=Snare_Center_D_vel08_mic-Overhead_L.wav lovel=63 hivel=71
<region> sample=Snare_Center_D_vel09_mic-Overhead_L.wav lovel=72 hivel=80
<region> sample=Snare_Center_D_vel10_mic-Overhead_L.wav lovel=81 hivel=89
<region> sample=Snare_Center_D_vel11_mic-Overhead_L.wav lovel=90 hivel=98
<region> sample=Snare_Center_D_vel12_mic-Overhead_L.wav lovel=99 hivel=107
<region> sample=Snare_Center_D_vel13_mic-Overhead_L.wav lovel=108 hivel=127

// --- Mic: Overhead_R ---
<group> seq_position=1 output=6 // Round-Robin: A
<region> sample=Snare_Center_A_vel01_mic-Overhead_R.wav lovel=0 hivel=8
<region> sample=Snare_Center_A_vel02_mic-Overhead_R.wav lovel=9 hivel=17
<region> sample=Snare_Center_A_vel03_mic-Overhead_R.wav lovel=18 hivel=26
<region> sample=Snare_Center_A_vel04_mic-Overhead_R.wav lovel=27 hivel=35
<region> sample=Snare_Center_A_vel05_mic-Overhead_R.wav lovel=36 hivel=44
<region> sample=Snare_Center_A_vel06_mic-Overhead_R.wav lovel=45 hivel=53
<region> sample=Snare_Center_A_vel07_mic-Overhead_R.wav lovel=54 hivel=62
<region> sample=Snare_Center_A_vel08_mic-Overhead_R.wav lovel=63 hivel=71
<region> sample=Snare_Center_A_vel09_mic-Overhead_R.wav lovel=72 hivel=80
<region> sample=Snare_Center_A_vel10_mic-Overhead_R.wav lovel=81 hivel=89
<region> sample=Snare_Center_A_vel11_mic-Overhead_R.wav lovel=90 hivel=98
<region> sample=Snare_Center_A_vel12_mic-Overhead_R.wav lovel=99 hivel=107
<region> sample=Snare_Center_A_vel13_mic-Overhead_R.wav lovel=108 hivel=127
<group> seq_position=2 output=6 // Round-Robin: B
<region> sample=Snare_Center_B_vel01_mic-Overhead_R.wav lovel=0 hivel=8
<region> sample=Snare_Center_B_vel02_mic-Overhead_R.wav lovel=9 hivel=17
<region> sample=Snare_Center_B_vel03_mic-Overhead_R.wav lovel=18 hivel=26
<region> sample=Snare_Center_B_vel04_mic-Overhead_R.wav lovel=27 hivel=35
<region> sample=Snare_Center_B_vel05_mic-Overhead_R.wav lovel=36 hivel=44
<region> sample=Snare_Center_B_vel06_mic-Overhead_R.wav lovel=45 hivel=53
<region> sample=Snare_Center_B_vel07_mic-Overhead_R.wav lovel=54 hivel=62
<region> sample=Snare_Center_B_vel08_mic-Overhead_R.wav lovel=63 hivel=71
<region> sample=Snare_Center_B_vel09_mic-Overhead_R.wav lovel=72 hivel=80
<region> sample=Snare_Center_B_vel10_mic-Overhead_R.wav lovel=81 hivel=89
<region> sample=Snare_Center_B_vel11_mic-Overhead_R.wav lovel=90 hivel=98
<region> sample=Snare_Center_B_vel12_mic-Overhead_R.wav lovel=99 hivel=107
<region> sample=Snare_Center_B_vel13_mic-Overhead_R.wav lovel=108 hivel=127
<group> seq_position=3 output=6 // Round-Robin: C
<region> sample=Snare_Center_C_vel01_mic-Overhead_R.wav lovel=0 hivel=8
<region> sample=Snare_Center_C_vel02_mic-Overhead_R.wav lovel=9 hivel=17
<region> sample=Snare_Center_C_vel03_mic-Overhead_R.wav lovel=18 hivel=26
<region> sample=Snare_Center_C_vel04_mic-Overhead_R.wav lovel=27 hivel=35
<region> sample=Snare_Center_C_vel05_mic-Overhead_R.wav lovel=36 hivel=44
<region> sample=Snare_Center_C_vel06_mic-Overhead_R.wav lovel=45 hivel=53
<region> sample=Snare_Center_C_vel07_mic-Overhead_R.wav lovel=54 hivel=62
<region> sample=Snare_Center_C_vel08_mic-Overhead_R.wav lovel=63 hivel=71
<region> sample=Snare_Center_C_vel09_mic-Overhead_R.wav lovel=72 hivel=80
<region> sample=Snare_Center_C_vel10_mic-Overhead_R.wav lovel=81 hivel=89
<region> sample=Snare_Center_C_vel11_mic-Overhead_R.wav lovel=90 hivel=98
<region> sample=Snare_Center_C_vel12_mic-Overhead_R.wav lovel=99 hivel=107
<region> sample=Snare_Center_C_vel13_mic-Overhead_R.wav lovel=108 hivel=127
<group> seq_position=4 output=6 // Round-Robin: D
<region> sample=Snare_Center_D_vel01_mic-Overhead_R.wav lovel=0 hivel=8
<region> sample=Snare_Center_D_vel02_mic-Overhead_R.wav lovel=9 hivel=17
<region> sample=Snare_Center_D_vel03_mic-Overhead_R.wav lovel=18 hivel=26
<region> sample=Snare_Center_D_vel04_mic-Overhead_R.wav lovel=27 hivel=35
<region> sample=Snare_Center_D_vel05_mic-Overhead_R.wav lovel=36 hivel=44
<region> sample=Snare_Center_D_vel06_mic-Overhead_R.wav lovel=45 hivel=53
<region> sample=Snare_Center_D_vel07_mic-Overhead_R.wav lovel=54 hivel=62
<region> sample=Snare_Center_D_vel08_mic-Overhead_R.wav lovel=63 hivel=71
<region> sample=Snare_Center_D_vel09_mic-Overhead_R.wav lovel=72 hivel=80
<region> sample=Snare_Center_D_vel10_mic-Overhead_R.wav lovel=81 hivel=89
<region> sample=Snare_Center_D_vel11_mic-Overhead_R.wav lovel=90 hivel=98
<region> sample=Snare_Center_D_vel12_mic-Overhead_R.wav lovel=99 hivel=107
<region> sample=Snare_Center_D_vel13_mic-Overhead_R.wav lovel=108 hivel=127

// --- Mic: Sanre_Top ---
<group> seq_position=1 // Round-Robin: A
<region> sample=Snare_Center_A_vel01_mic-Sanre_Top.wav lovel=0 hivel=8
<region> sample=Snare_Center_A_vel02_mic-Sanre_Top.wav lovel=9 hivel=17
<region> sample=Snare_Center_A_vel03_mic-Sanre_Top.wav lovel=18 hivel=26
<region> sample=Snare_Center_A_vel04_mic-Sanre_Top.wav lovel=27 hivel=35
<region> sample=Snare_Center_A_vel05_mic-Sanre_Top.wav lovel=36 hivel=44
<region> sample=Snare_Center_A_vel06_mic-Sanre_Top.wav lovel=45 hivel=53
<region> sample=Snare_Center_A_vel07_mic-Sanre_Top.wav lovel=54 hivel=62
<region> sample=Snare_Center_A_vel08_mic-Sanre_Top.wav lovel=63 hivel=71
<region> sample=Snare_Center_A_vel09_mic-Sanre_Top.wav lovel=72 hivel=80
<region> sample=Snare_Center_A_vel10_mic-Sanre_Top.wav lovel=81 hivel=89
<region> sample=Snare_Center_A_vel11_mic-Sanre_Top.wav lovel=90 hivel=98
<region> sample=Snare_Center_A_vel12_mic-Sanre_Top.wav lovel=99 hivel=107
<region> sample=Snare_Center_A_vel13_mic-Sanre_Top.wav lovel=108 hivel=127
<group> seq_position=2 // Round-Robin: B
<region> sample=Snare_Center_B_vel01_mic-Sanre_Top.wav lovel=0 hivel=8
<region> sample=Snare_Center_B_vel02_mic-Sanre_Top.wav lovel=9 hivel=17
<region> sample=Snare_Center_B_vel03_mic-Sanre_Top.wav lovel=18 hivel=26
<region> sample=Snare_Center_B_vel04_mic-Sanre_Top.wav lovel=27 hivel=35
<region> sample=Snare_Center_B_vel05_mic-Sanre_Top.wav lovel=36 hivel=44
<region> sample=Snare_Center_B_vel06_mic-Sanre_Top.wav lovel=45 hivel=53
<region> sample=Snare_Center_B_vel07_mic-Sanre_Top.wav lovel=54 hivel=62
<region> sample=Snare_Center_B_vel08_mic-Sanre_Top.wav lovel=63 hivel=71
<region> sample=Snare_Center_B_vel09_mic-Sanre_Top.wav lovel=72 hivel=80
<region> sample=Snare_Center_B_vel10_mic-Sanre_Top.wav lovel=81 hivel=89
<region> sample=Snare_Center_B_vel11_mic-Sanre_Top.wav lovel=90 hivel=98
<region> sample=Snare_Center_B_vel12_mic-Sanre_Top.wav lovel=99 hivel=107
<region> sample=Snare_Center_B_vel13_mic-Sanre_Top.wav lovel=108 hivel=127
<group> seq_position=3 // Round-Robin: C
<region> sample=Snare_Center_C_vel01_mic-Sanre_Top.wav lovel=0 hivel=8
<region> sample=Snare_Center_C_vel02_mic-Sanre_Top.wav lovel=9 hivel=17
<region> sample=Snare_Center_C_vel03_mic-Sanre_Top.wav lovel=18 hivel=26
<region> sample=Snare_Center_C_vel04_mic-Sanre_Top.wav lovel=27 hivel=35
<region> sample=Snare_Center_C_vel05_mic-Sanre_Top.wav lovel=36 hivel=44
<region> sample=Snare_Center_C_vel06_mic-Sanre_Top.wav lovel=45 hivel=53
<region> sample=Snare_Center_C_vel07_mic-Sanre_Top.wav lovel=54 hivel=62
<region> sample=Snare_Center_C_vel08_mic-Sanre_Top.wav lovel=63 hivel=71
<region> sample=Snare_Center_C_vel09_mic-Sanre_Top.wav lovel=72 hivel=80
<region> sample=Snare_Center_C_vel10_mic-Sanre_Top.wav lovel=81 hivel=89
<region> sample=Snare_Center_C_vel11_mic-Sanre_Top.wav lovel=90 hivel=98
<region> sample=Snare_Center_C_vel12_mic-Sanre_Top.wav lovel=99 hivel=107
<region> sample=Snare_Center_C_vel13_mic-Sanre_Top.wav lovel=108 hivel=127
<group> seq_position=4 // Round-Robin: D
<region> sample=Snare_Center_D_vel01_mic-Sanre_Top.wav lovel=0 hivel=8
<region> sample=Snare_Center_D_vel02_mic-Sanre_Top.wav lovel=9 hivel=17
<region> sample=Snare_Center_D_vel03_mic-Sanre_Top.wav lovel=18 hivel=26
<region> sample=Snare_Center_D_vel04_mic-Sanre_Top.wav lovel=27 hivel=35
<region> sample=Snare_Center_D_vel05_mic-Sanre_Top.wav lovel=36 hivel=44
<region> sample=Snare_Center_D_vel06_mic-Sanre_Top.wav lovel=45 hivel=53
<region> sample=Snare_Center_D_vel07_mic-Sanre_Top.wav lovel=54 hivel=62
<region> sample=Snare_Center_D_vel08_mic-Sanre_Top.wav lovel=63 hivel=71
<region> sample=Snare_Center_D_vel09_mic-Sanre_Top.wav lovel=72 hivel=80
<region> sample=Snare_Center_D_vel10_mic-Sanre_Top.wav lovel=81 hivel=89
<region> sample=Snare_Center_D_vel11_mic-Sanre_Top.wav lovel=90 hivel=98
<region> sample=Snare_Center_D_vel12_mic-Sanre_Top.wav lovel=99 hivel=107
<region> sample=Snare_Center_D_vel13_mic-Sanre_Top.wav lovel=108 hivel=127

// --- Mic: Snare_Bottom ---
<group> seq_position=1 // Round-Robin: A
<region> sample=Snare_Center_A_vel01_mic-Snare_Bottom.wav lovel=0 hivel=8
<region> sample=Snare_Center_A_vel02_mic-Snare_Bottom.wav lovel=9 hivel=17
<region> sample=Snare_Center_A_vel03_mic-Snare_Bottom.wav lovel=18 hivel=26
<region> sample=Snare_Center_A_vel04_mic-Snare_Bottom.wav lovel=27 hivel=35
<region> sample=Snare_Center_A_vel05_mic-Snare_Bottom.wav lovel=36 hivel=44
<region> sample=Snare_Center_A_vel06_mic-Snare_Bottom.wav lovel=45 hivel=53
<region> sample=Snare_Center_A_vel07_mic-Snare_Bottom.wav lovel=54 hivel=62
<region> sample=Snare_Center_A_vel08_mic-Snare_Bottom.wav lovel=63 hivel=71
<region> sample=Snare_Center_A_vel09_mic-Snare_Bottom.wav lovel=72 hivel=80
<region> sample=Snare_Center_A_vel10_mic-Snare_Bottom.wav lovel=81 hivel=89
<region> sample=Snare_Center_A_vel11_mic-Snare_Bottom.wav lovel=90 hivel=98
<region> sample=Snare_Center_A_vel12_mic-Snare_Bottom.wav lovel=99 hivel=107
<region> sample=Snare_Center_A_vel13_mic-Snare_Bottom.wav lovel=108 hivel=127
<group> seq_position=2 // Round-Robin: B
<region> sample=Snare_Center_B_vel01_mic-Snare_Bottom.wav lovel=0 hivel=8
<region> sample=Snare_Center_B_vel02_mic-Snare_Bottom.wav lovel=9 hivel=17
<region> sample=Snare_Center_B_vel03_mic-Snare_Bottom.wav lovel=18 hivel=26
<region> sample=Snare_Center_B_vel04_mic-Snare_Bottom.wav lovel=27 hivel=35
<region> sample=Snare_Center_B_vel05_mic-Snare_Bottom.wav lovel=36 hivel=44
<region> sample=Snare_Center_B_vel06_mic-Snare_Bottom.wav lovel=45 hivel=53
<region> sample=Snare_Center_B_vel07_mic-Snare_Bottom.wav lovel=54 hivel=62
<region> sample=Snare_Center_B_vel08_mic-Snare_Bottom.wav lovel=63 hivel=71
<region> sample=Snare_Center_B_vel09_mic-Snare_Bottom.wav lovel=72 hivel=80
<region> sample=Snare_Center_B_vel10_mic-Snare_Bottom.wav lovel=81 hivel=89
<region> sample=Snare_Center_B_vel11_mic-Snare_Bottom.wav lovel=90 hivel=98
<region> sample=Snare_Center_B_vel12_mic-Snare_Bottom.wav lovel=99 hivel=107
<region> sample=Snare_Center_B_vel13_mic-Snare_Bottom.wav lovel=108 hivel=127
<group> seq_position=3 // Round-Robin: C
<region> sample=Snare_Center_C_vel01_mic-Snare_Bottom.wav lovel=0 hivel=8
<region> sample=Snare_Center_C_vel02_mic-Snare_Bottom.wav lovel=9 hivel=17
<region> sample=Snare_Center_C_vel03_mic-Snare_Bottom.wav lovel=18 hivel=26
<region> sample=Snare_Center_C_vel04_mic-Snare_Bottom.wav lovel=27 hivel=35
<region> sample=Snare_Center_C_vel05_mic-Snare_Bottom.wav lovel=36 hivel=44
<region> sample=Snare_Center_C_vel06_mic-Snare_Bottom.wav lovel=45 hivel=53
<region> sample=Snare_Center_C_vel07_mic-Snare_Bottom.wav lovel=54 hivel=62
<region> sample=Snare_Center_C_vel08_mic-Snare_Bottom.wav lovel=63 hivel=71
<region> sample=Snare_Center_C_vel09_mic-Snare_Bottom.wav lovel=72 hivel=80
<region> sample=Snare_Center_C_vel10_mic-Snare_Bottom.wav lovel=81 hivel=89
<region> sample=Snare_Center_C_vel11_mic-Snare_Bottom.wav lovel=90 hivel=98
<region> sample=Snare_Center_C_vel12_mic-Snare_Bottom.wav lovel=99 hivel=107
<region> sample=Snare_Center_C_vel13_mic-Snare_Bottom.wav lovel=108 hivel=127
<group> seq_position=4 // Round-Robin: D
<region> sample=Snare_Center_D_vel01_mic-Snare_Bottom.wav lovel=0 hivel=8
<region> sample=Snare_Center_D_vel02_mic-Snare_Bottom.wav lovel=9 hivel=17
<region> sample=Snare_Center_D_vel03_mic-Snare_Bottom.wav lovel=18 hivel=26
<region> sample=Snare_Center_D_vel04_mic-Snare_Bottom.wav lovel=27 hivel=35
<region> sample=Snare_Center_D_vel05_mic-Snare_Bottom.wav lovel=36 hivel=44
<region> sample=Snare_Center_D_vel06_mic-Snare_Bottom.wav lovel=45 hivel=53
<region> sample=Snare_Center_D_vel07_mic-Snare_Bottom.wav lovel=54 hivel=62
<region> sample=Snare_Center_D_vel08_mic-Snare_Bottom.wav lovel=63 hivel=71
<region> sample=Snare_Center_D_vel09_mic-Snare_Bottom.wav lovel=72 hivel=80
<region> sample=Snare_Center_D_vel10_mic-Snare_Bottom.wav lovel=81 hivel=89
<region> sample=Snare_Center_D_vel11_mic-Snare_Bottom.wav lovel=90 hivel=98
<region> sample=Snare_Center_D_vel12_mic-Snare_Bottom.wav lovel=99 hivel=107
<region> sample=Snare_Center_D_vel13_mic-Snare_Bottom.wav lovel=108 hivel=127
